<?xml version="1.0" encoding="utf-8"?>
<!-- Generator: Adobe Illustrator 17.1.0, SVG Export Plug-In . SVG Version: 6.00 Build 0)  -->
<!DOCTYPE svg PUBLIC "-//W3C//DTD SVG 1.1//EN" "http://www.w3.org/Graphics/SVG/1.1/DTD/svg11.dtd">
<svg version="1.1" id="Layer_1" xmlns="http://www.w3.org/2000/svg" xmlns:xlink="http://www.w3.org/1999/xlink" x="0px" y="0px"
	 viewBox="0 0 100 100" enable-background="new 0 0 100 100" xml:space="preserve">
<g>
	
		<radialGradient id="SVGID_1_" cx="-164.7603" cy="23491.2793" r="21.7495" gradientTransform="matrix(1.2032 0 0 0.1488 250.1171 -3400.6995)" gradientUnits="userSpaceOnUse">
		<stop  offset="0" style="stop-color:#010101;stop-opacity:0.2"/>
		<stop  offset="1" style="stop-color:#010101;stop-opacity:0"/>
	</radialGradient>
	<ellipse fill="url(#SVGID_1_)" cx="51.9" cy="94.8" rx="27.1" ry="3.6"/>
	
		<radialGradient id="SVGID_2_" cx="-159.5204" cy="19700.8184" r="9.3014" gradientTransform="matrix(1 0 0 0.1815 202.5 -3480.7729)" gradientUnits="userSpaceOnUse">
		<stop  offset="0" style="stop-color:#010101;stop-opacity:0.4"/>
		<stop  offset="1" style="stop-color:#010101;stop-opacity:0"/>
	</radialGradient>
	<ellipse opacity="0.34" fill="url(#SVGID_2_)" enable-background="new    " cx="43" cy="94.9" rx="8.3" ry="1.6"/>
	
		<radialGradient id="SVGID_3_" cx="-140.6475" cy="19700.8184" r="9.3016" gradientTransform="matrix(1 0 0 0.1815 202.5 -3480.7729)" gradientUnits="userSpaceOnUse">
		<stop  offset="0" style="stop-color:#010101;stop-opacity:0.4"/>
		<stop  offset="1" style="stop-color:#010101;stop-opacity:0"/>
	</radialGradient>
	<ellipse opacity="0.34" fill="url(#SVGID_3_)" enable-background="new    " cx="61.9" cy="94.9" rx="8.3" ry="1.6"/>
	
		<linearGradient id="SVGID_4_" gradientUnits="userSpaceOnUse" x1="-3415.8477" y1="2277.8149" x2="-3415.8477" y2="2277.8149" gradientTransform="matrix(-3.820000e-02 -0.9993 0.9993 -3.820000e-02 -2333.074 -3273.4194)">
		<stop  offset="0" style="stop-color:#A4A0BD"/>
		<stop  offset="1" style="stop-color:#202026"/>
	</linearGradient>
	<path fill="url(#SVGID_4_)" d="M73.6,53"/>
	
		<linearGradient id="SVGID_5_" gradientUnits="userSpaceOnUse" x1="-3404.4067" y1="2544.4661" x2="-3402.3772" y2="2545.511" gradientTransform="matrix(6.480000e-02 -0.9979 0.9979 6.480000e-02 -2248.0134 -3508.0989)">
		<stop  offset="0" style="stop-color:#D9B78B"/>
		<stop  offset="0.1781" style="stop-color:#E4C79C"/>
		<stop  offset="0.4116" style="stop-color:#EED7AC"/>
		<stop  offset="0.67" style="stop-color:#F5E0B6"/>
		<stop  offset="1" style="stop-color:#F7E3B9"/>
	</linearGradient>
	<path fill="url(#SVGID_5_)" d="M68.4,58.5c-1,0.2-2-0.4-2.3-1.3L65.8,56c-0.3-0.9,0.3-1.7,1.3-1.9l3.9-0.7c1-0.2,2.3,0.4,2.6,1.3
		l0,0.8c-0.1,1.2-1.7,2.3-2.7,2.5L68.4,58.5z"/>
	
		<linearGradient id="SVGID_6_" gradientUnits="userSpaceOnUse" x1="-129.8103" y1="5545.0786" x2="-138.2547" y2="5546.5986" gradientTransform="matrix(1 0 0 1 202.5 -5489.29)">
		<stop  offset="0" style="stop-color:#010101;stop-opacity:0"/>
		<stop  offset="1" style="stop-color:#010101;stop-opacity:0.4"/>
	</linearGradient>
	<path fill="url(#SVGID_6_)" d="M70.1,54.3L66.2,55c-0.1,0-0.3,0.1-0.4,0.1c-0.1,0.3-0.1,0.6,0,0.9l0.4,1.2c0.3,0.9,1.3,1.5,2.3,1.3
		l2.5-0.6c0.4-0.1,1-0.3,1.4-0.7c0.2-0.3,0.3-0.6,0.4-0.9l0-0.8C72.4,54.6,71.1,54.1,70.1,54.3z"/>
	
		<linearGradient id="SVGID_7_" gradientUnits="userSpaceOnUse" x1="-133.0198" y1="5544.9351" x2="-133.8116" y2="5544.271" gradientTransform="matrix(1 0 0 1 202.5 -5489.29)">
		<stop  offset="0" style="stop-color:#010101;stop-opacity:0"/>
		<stop  offset="1" style="stop-color:#010101;stop-opacity:0.4"/>
	</linearGradient>
	<path fill="url(#SVGID_7_)" d="M71.3,53.4c-0.1,0-0.2,0-0.3,0l-3.9,0.7c-1,0.2-1.6,1-1.3,1.9l0.1,0.5c0.5,0.4,1.1-0.2,1.8-0.5
		c0.7-0.3,1.5-0.7,1.6-1.2l1.1-0.2C70.9,54.4,71.3,53.9,71.3,53.4z"/>
	
		<linearGradient id="SVGID_8_" gradientUnits="userSpaceOnUse" x1="-134.6546" y1="5543.231" x2="-135.0872" y2="5541.0767" gradientTransform="matrix(1 0 0 1 202.5 -5489.29)">
		<stop  offset="0" style="stop-color:#D9B78B"/>
		<stop  offset="0.1781" style="stop-color:#E4C79C"/>
		<stop  offset="0.4116" style="stop-color:#EED7AC"/>
		<stop  offset="0.67" style="stop-color:#F5E0B6"/>
		<stop  offset="1" style="stop-color:#F7E3B9"/>
	</linearGradient>
	<path fill="url(#SVGID_8_)" d="M67.8,56.1c0.6-0.4,0.9-1,0.9-1.6l1.2-0.8c0.4-0.4,0.7-1.3,0.3-1.8c-0.3-0.5-0.5-0.6-0.9-0.4
		c0,0-1.9,0.9-3.6,2.3c-0.1,0.1-1.2,1-0.5,2.2C65.8,56.7,67,56.7,67.8,56.1z"/>
	
		<linearGradient id="SVGID_9_" gradientUnits="userSpaceOnUse" x1="-3404.9424" y1="2544.6406" x2="-3405.0747" y2="2546.3643" gradientTransform="matrix(6.480000e-02 -0.9979 0.9979 6.480000e-02 -2248.0134 -3508.0989)">
		<stop  offset="0" style="stop-color:#010101;stop-opacity:0"/>
		<stop  offset="1" style="stop-color:#010101;stop-opacity:0.4"/>
	</linearGradient>
	<path opacity="0.58" fill="url(#SVGID_9_)" enable-background="new    " d="M70.2,55.8c2.4-0.8,2.6-1.6,2.5-2.1
		c-0.1,0-0.2-0.1-0.3-0.1C72.6,54.7,70.2,55.8,70.2,55.8z"/>
	
		<linearGradient id="SVGID_10_" gradientUnits="userSpaceOnUse" x1="-3405.5769" y1="2546.0327" x2="-3405.6841" y2="2547.4319" gradientTransform="matrix(6.480000e-02 -0.9979 0.9979 6.480000e-02 -2248.0134 -3508.0989)">
		<stop  offset="0" style="stop-color:#010101;stop-opacity:0"/>
		<stop  offset="1" style="stop-color:#010101;stop-opacity:0.4"/>
	</linearGradient>
	<path opacity="0.58" fill="url(#SVGID_10_)" enable-background="new    " d="M73.5,54.4c-0.3,0.9-1.9,1.9-1.9,1.9
		c1.2-0.6,1.8-1.1,2-1.5l0-0.2C73.6,54.6,73.5,54.5,73.5,54.4z"/>
	
		<linearGradient id="SVGID_11_" gradientUnits="userSpaceOnUse" x1="-138.7258" y1="5541.1357" x2="-139.6289" y2="5544.5376" gradientTransform="matrix(1 0 0 1 202.5 -5489.29)">
		<stop  offset="0" style="stop-color:#A4A0BD"/>
		<stop  offset="1" style="stop-color:#202026"/>
	</linearGradient>
	<path fill="url(#SVGID_11_)" d="M68.2,55.8c-1.3,0.8-2.5,0-2.4-0.8c0.4-1.9,1.3-2.2,1.3-2.2s-3.1,0.3-3.9,0.4
		c-3,0.5-5.5,1.1-5.5,1.1s-7.2,8.6,2.5,6.8c1.3-0.2,2.4-0.5,3.4-0.9c2.1-0.7,5.1-1.9,5.1-1.9C66.9,57.9,68.8,57,68.2,55.8z"/>
	
		<linearGradient id="SVGID_12_" gradientUnits="userSpaceOnUse" x1="-134.6751" y1="5542.3735" x2="-134.6419" y2="5549.355" gradientTransform="matrix(1 0 0 1 202.5 -5489.29)">
		<stop  offset="0" style="stop-color:#010101;stop-opacity:0"/>
		<stop  offset="1" style="stop-color:#010101;stop-opacity:0.4"/>
	</linearGradient>
	<path fill="url(#SVGID_12_)" d="M70.4,51.9C70.3,51.9,70.3,51.9,70.4,51.9c0,0.4-0.2,1-0.5,1.3L68.6,54c0,0.6-0.5,1-1.1,1.4
		c-0.8,0.6-1.8,0.2-2.3-0.3c0,0.3,0,0.6,0.2,1c0.4,0.7,1.6,0.7,2.4,0.1c0.6-0.4,0.9-1,0.9-1.6l1.2-0.8
		C70.4,53.4,70.7,52.4,70.4,51.9z"/>
	
		<linearGradient id="SVGID_13_" gradientUnits="userSpaceOnUse" x1="-138.7266" y1="5543.291" x2="-137.518" y2="5544.187" gradientTransform="matrix(1 0 0 1 202.5 -5489.29)">
		<stop  offset="0" style="stop-color:#FFFFFF;stop-opacity:0.4"/>
		<stop  offset="1" style="stop-color:#FFFFFF;stop-opacity:0"/>
	</linearGradient>
	<path fill="url(#SVGID_13_)" d="M66.4,53.4c0,0-3.5,0-1.8,3.6c0,0,0.4,0.8,1.4,0.8C66.9,57.8,64.4,55,66.4,53.4z"/>
	
		<linearGradient id="SVGID_14_" gradientUnits="userSpaceOnUse" x1="-3434.4387" y1="2081.9849" x2="-3432.4092" y2="2083.0298" gradientTransform="matrix(-6.480000e-02 -0.9979 -0.9979 6.480000e-02 1889.2427 -3508.0989)">
		<stop  offset="0" style="stop-color:#D9B78B"/>
		<stop  offset="0.1781" style="stop-color:#E4C79C"/>
		<stop  offset="0.4116" style="stop-color:#EED7AC"/>
		<stop  offset="0.67" style="stop-color:#F5E0B6"/>
		<stop  offset="1" style="stop-color:#F7E3B9"/>
	</linearGradient>
	<path fill="url(#SVGID_14_)" d="M36.3,58.5c1,0.2,2-0.4,2.3-1.3l0.4-1.2c0.3-0.9-0.3-1.7-1.3-1.9l-3.9-0.7c-1-0.2-2.3,0.4-2.6,1.3
		l0,0.8c0.1,1.2,1.7,2.3,2.7,2.5L36.3,58.5z"/>
	
		<linearGradient id="SVGID_15_" gradientUnits="userSpaceOnUse" x1="-593.2675" y1="5545.0786" x2="-601.7119" y2="5546.5986" gradientTransform="matrix(-1 0 0 1 -561.2715 -5489.29)">
		<stop  offset="0" style="stop-color:#010101;stop-opacity:0"/>
		<stop  offset="1" style="stop-color:#010101;stop-opacity:0.4"/>
	</linearGradient>
	<path fill="url(#SVGID_15_)" d="M34.6,54.3l3.9,0.7c0.1,0,0.3,0.1,0.4,0.1c0.1,0.3,0.1,0.6,0,0.9l-0.4,1.2
		c-0.3,0.9-1.3,1.5-2.3,1.3l-2.5-0.6c-0.4-0.1-1-0.3-1.4-0.7c-0.2-0.3-0.3-0.6-0.4-0.9l0-0.8C32.3,54.6,33.6,54.1,34.6,54.3z"/>
	
		<linearGradient id="SVGID_16_" gradientUnits="userSpaceOnUse" x1="-596.4771" y1="5544.9351" x2="-597.2689" y2="5544.271" gradientTransform="matrix(-1 0 0 1 -561.2715 -5489.29)">
		<stop  offset="0" style="stop-color:#010101;stop-opacity:0"/>
		<stop  offset="1" style="stop-color:#010101;stop-opacity:0.4"/>
	</linearGradient>
	<path fill="url(#SVGID_16_)" d="M33.4,53.4c0.1,0,0.2,0,0.3,0l3.9,0.7c1,0.2,1.6,1,1.3,1.9l-0.1,0.5c-0.5,0.4-1.1-0.2-1.8-0.5
		c-0.7-0.3-1.5-0.7-1.6-1.2l-1.1-0.2C33.8,54.4,33.3,53.9,33.4,53.4z"/>
	
		<linearGradient id="SVGID_17_" gradientUnits="userSpaceOnUse" x1="-598.1112" y1="5543.231" x2="-598.5439" y2="5541.0767" gradientTransform="matrix(-1 0 0 1 -561.2715 -5489.29)">
		<stop  offset="0" style="stop-color:#D9B78B"/>
		<stop  offset="0.1781" style="stop-color:#E4C79C"/>
		<stop  offset="0.4116" style="stop-color:#EED7AC"/>
		<stop  offset="0.67" style="stop-color:#F5E0B6"/>
		<stop  offset="1" style="stop-color:#F7E3B9"/>
	</linearGradient>
	<path fill="url(#SVGID_17_)" d="M36.8,56.1c-0.6-0.4-0.9-1-0.9-1.6l-1.2-0.8c-0.4-0.4-0.7-1.3-0.3-1.8c0.3-0.5,0.5-0.6,0.9-0.4
		c0,0,1.9,0.9,3.6,2.3c0.1,0.1,1.2,1,0.5,2.2C38.9,56.7,37.7,56.7,36.8,56.1z"/>
	
		<linearGradient id="SVGID_18_" gradientUnits="userSpaceOnUse" x1="-3434.9744" y1="2082.1592" x2="-3435.1067" y2="2083.8826" gradientTransform="matrix(-6.480000e-02 -0.9979 -0.9979 6.480000e-02 1889.2427 -3508.0989)">
		<stop  offset="0" style="stop-color:#010101;stop-opacity:0"/>
		<stop  offset="1" style="stop-color:#010101;stop-opacity:0.4"/>
	</linearGradient>
	<path opacity="0.58" fill="url(#SVGID_18_)" enable-background="new    " d="M34.5,55.8c-2.4-0.8-2.6-1.6-2.5-2.1
		c0.1,0,0.2-0.1,0.3-0.1C32.1,54.7,34.5,55.8,34.5,55.8z"/>
	
		<linearGradient id="SVGID_19_" gradientUnits="userSpaceOnUse" x1="-3435.6086" y1="2083.5513" x2="-3435.7161" y2="2084.9504" gradientTransform="matrix(-6.480000e-02 -0.9979 -0.9979 6.480000e-02 1889.2427 -3508.0989)">
		<stop  offset="0" style="stop-color:#010101;stop-opacity:0"/>
		<stop  offset="1" style="stop-color:#010101;stop-opacity:0.4"/>
	</linearGradient>
	<path opacity="0.58" fill="url(#SVGID_19_)" enable-background="new    " d="M31.2,54.4c0.3,0.9,1.9,1.9,1.9,1.9
		c-1.2-0.6-1.8-1.1-2-1.5l0-0.2C31.1,54.6,31.2,54.5,31.2,54.4z"/>
	
		<linearGradient id="SVGID_20_" gradientUnits="userSpaceOnUse" x1="-602.1828" y1="5541.1357" x2="-603.0861" y2="5544.5376" gradientTransform="matrix(-1 0 0 1 -561.2715 -5489.29)">
		<stop  offset="0" style="stop-color:#A4A0BD"/>
		<stop  offset="1" style="stop-color:#202026"/>
	</linearGradient>
	<path fill="url(#SVGID_20_)" d="M36.5,55.8c1.3,0.8,2.5,0,2.4-0.8c-0.4-1.9-1.3-2.2-1.3-2.2s3.1,0.3,3.9,0.4c3,0.5,5.5,1.1,5.5,1.1
		s7.2,8.6-2.5,6.8c-1.3-0.2-2.4-0.5-3.4-0.9C39,59.6,36,58.5,36,58.5C37.8,57.9,35.9,57,36.5,55.8z"/>
	
		<linearGradient id="SVGID_21_" gradientUnits="userSpaceOnUse" x1="-598.132" y1="5542.3735" x2="-598.0988" y2="5549.355" gradientTransform="matrix(-1 0 0 1 -561.2715 -5489.29)">
		<stop  offset="0" style="stop-color:#010101;stop-opacity:0"/>
		<stop  offset="1" style="stop-color:#010101;stop-opacity:0.4"/>
	</linearGradient>
	<path fill="url(#SVGID_21_)" d="M34.3,51.9C34.3,51.9,34.4,51.9,34.3,51.9c0,0.4,0.2,1,0.5,1.3l1.2,0.8c0,0.6,0.5,1,1.1,1.4
		c0.8,0.6,1.8,0.2,2.3-0.3c0,0.3,0,0.6-0.2,1c-0.4,0.7-1.6,0.7-2.4,0.1c-0.6-0.4-0.9-1-0.9-1.6l-1.2-0.8
		C34.3,53.4,34,52.4,34.3,51.9z"/>
	
		<linearGradient id="SVGID_22_" gradientUnits="userSpaceOnUse" x1="-163.4944" y1="5545.1421" x2="-161.9208" y2="5545.4106" gradientTransform="matrix(1 0 0 1 202.5 -5489.29)">
		<stop  offset="0" style="stop-color:#010101;stop-opacity:0"/>
		<stop  offset="1" style="stop-color:#010101;stop-opacity:0.4"/>
	</linearGradient>
	<path fill="url(#SVGID_22_)" d="M38.3,53.4c0,0,3.9,0,2,4c0,0-0.4,0.9-1.5,0.9C37.7,58.3,40.5,55.2,38.3,53.4z"/>
	
		<linearGradient id="SVGID_23_" gradientUnits="userSpaceOnUse" x1="-139.7247" y1="5555.7974" x2="-140.6416" y2="5555.6953" gradientTransform="matrix(1 0 0 1 202.5 -5489.29)">
		<stop  offset="0" style="stop-color:#A4A0BD"/>
		<stop  offset="1" style="stop-color:#202026"/>
	</linearGradient>
	<ellipse fill="url(#SVGID_23_)" cx="61.5" cy="66.4" rx="0.7" ry="0.3"/>
	
		<linearGradient id="SVGID_24_" gradientUnits="userSpaceOnUse" x1="-152.9335" y1="5555.708" x2="-152.9335" y2="5555.708" gradientTransform="matrix(1 0 0 1 202.5 -5489.29)">
		<stop  offset="0" style="stop-color:#FFFFFF;stop-opacity:0.35"/>
		<stop  offset="8.960000e-02" style="stop-color:#FFFFFF;stop-opacity:0.3186"/>
		<stop  offset="1" style="stop-color:#FFFFFF;stop-opacity:0"/>
	</linearGradient>
	<path fill="url(#SVGID_24_)" d="M49.6,66.4"/>
	
		<linearGradient id="SVGID_25_" gradientUnits="userSpaceOnUse" x1="-2132.5308" y1="4911.4971" x2="-2137.0608" y2="4916.2012" gradientTransform="matrix(0.7857 -0.6186 0.6186 0.7857 -1303.2603 -5111.709)">
		<stop  offset="0" style="stop-color:#A4A0BD"/>
		<stop  offset="1" style="stop-color:#202026"/>
	</linearGradient>
	<path fill="url(#SVGID_25_)" d="M56.8,66l-5.8,9c0,0,5.9,3.1,7.5,3.7c1.6,0.6,5.8-2.1,7.1-4.1c1.3-2.1,1.2-3.1-2.4-3.4
		C63.3,71.3,56.8,66,56.8,66z"/>
	
		<linearGradient id="SVGID_26_" gradientUnits="userSpaceOnUse" x1="-158.8622" y1="5555.7974" x2="-159.7792" y2="5555.6953" gradientTransform="matrix(1 0 0 1 202.5 -5489.29)">
		<stop  offset="0" style="stop-color:#A4A0BD"/>
		<stop  offset="1" style="stop-color:#202026"/>
	</linearGradient>
	<ellipse fill="url(#SVGID_26_)" cx="42.4" cy="66.4" rx="0.7" ry="0.3"/>
	
		<linearGradient id="SVGID_27_" gradientUnits="userSpaceOnUse" x1="1966.723" y1="4656.7183" x2="1972.0203" y2="4658.9888" gradientTransform="matrix(0.7383 0.6744 -0.6744 0.7383 1730.4576 -4696.9487)">
		<stop  offset="0" style="stop-color:#A4A0BD"/>
		<stop  offset="1" style="stop-color:#202026"/>
	</linearGradient>
	<path fill="url(#SVGID_27_)" d="M47.6,66.5l5.1,9.4c0,0-6.1,2.7-7.8,3.2c-1.6,0.5-5.1-1.9-6.3-4.1c-1.2-2.2,0-3,2.1-3.8
		C40.7,71.3,47.6,66.5,47.6,66.5z"/>
	
		<linearGradient id="SVGID_28_" gradientUnits="userSpaceOnUse" x1="-174.7818" y1="5545.2729" x2="-150.8825" y2="5550.0601" gradientTransform="matrix(1 0 0 1 202.5 -5489.29)">
		<stop  offset="0" style="stop-color:#A4A0BD"/>
		<stop  offset="1" style="stop-color:#202026"/>
	</linearGradient>
	<ellipse fill="url(#SVGID_28_)" cx="51.9" cy="60.8" rx="10.6" ry="16.3"/>
	
		<linearGradient id="SVGID_29_" gradientUnits="userSpaceOnUse" x1="-167.695" y1="5557.9292" x2="-145.7596" y2="5557.6704" gradientTransform="matrix(1 0 0 1 202.5 -5489.29)">
		<stop  offset="0" style="stop-color:#010101;stop-opacity:0"/>
		<stop  offset="1" style="stop-color:#010101;stop-opacity:0.4"/>
	</linearGradient>
	<path fill="url(#SVGID_29_)" d="M42.1,67c0.2,0.7,0.4,1.4,0.7,2c1.4,0.6,5,1,9.2,1c4.2,0,7.7-0.4,9.1-1c0.3-0.7,0.5-1.4,0.7-2.1
		c-1.3,0.6-5.2,1.1-9.9,1.1C47.3,68,43.4,67.6,42.1,67z"/>
	
		<linearGradient id="SVGID_30_" gradientUnits="userSpaceOnUse" x1="-164.6712" y1="5556.438" x2="-145.27" y2="5557.332" gradientTransform="matrix(1 0 0 1 202.5 -5489.29)">
		<stop  offset="0" style="stop-color:#A4A0BD"/>
		<stop  offset="1" style="stop-color:#202026"/>
	</linearGradient>
	<path fill="url(#SVGID_30_)" d="M51.9,67.7c-5.1,0-9.4-0.6-10.2-1.3c0,0,0,0.1,0,0.1c0,0.1-0.1,0.3,0.2,0.6c0,0,0,0,0,0.1
		c0,0.1-0.1,0.9,0.4,1.3c0,0,0,0,0,0c0.8,0.7,4.8,1.3,9.7,1.3c4.7,0,8.6-0.5,9.6-1.2c0.1-0.1,0.4-0.4,0.3-0.9
		c0.1-0.1,0.2-0.2,0.2-0.5c0.1-0.3,0.1-0.5,0-0.8C61.5,67.1,57.2,67.7,51.9,67.7z"/>
	
		<linearGradient id="SVGID_31_" gradientUnits="userSpaceOnUse" x1="-160.2489" y1="5557.1113" x2="-155.7694" y2="5557.3179" gradientTransform="matrix(1 0 0 1 202.5 -5489.29)">
		<stop  offset="2.450000e-02" style="stop-color:#FFFFFF;stop-opacity:0"/>
		<stop  offset="0.4417" style="stop-color:#FFFFFF;stop-opacity:0.27"/>
		<stop  offset="1" style="stop-color:#FFFFFF;stop-opacity:0"/>
	</linearGradient>
	<path opacity="0.81" fill="url(#SVGID_31_)" enable-background="new    " d="M46.8,67.5c-2.7-0.2-4.6-0.6-5.1-1.1
		c0.2,0.7,0.4,1.3,0.6,2l0,0c0.5,0.4,2.2,0.8,4.6,1L46.8,67.5z"/>
	
		<linearGradient id="SVGID_32_" gradientUnits="userSpaceOnUse" x1="-152.0025" y1="5545.5044" x2="-148.7515" y2="5552.7148" gradientTransform="matrix(1 0 0 1 202.5 -5489.29)">
		<stop  offset="0" style="stop-color:#010101;stop-opacity:0"/>
		<stop  offset="1" style="stop-color:#010101;stop-opacity:0.4"/>
	</linearGradient>
	<path fill="url(#SVGID_32_)" d="M48,57.2c0.1-0.1,0.3-0.2,0.5-0.2c0.4,0,0.6,0.2,0.6,0.5c0.2,1.5,0.5,2.8,0.7,3.9l1.6-3.1
		c0.1-0.3,0.3-0.4,0.6-0.4c0.3,0,0.5,0.2,0.6,0.6c0.2,1,0.4,1.8,0.7,2.5c0.2-1.9,0.5-3.2,1-4.1c0.1-0.2,0.3-0.3,0.5-0.3
		c0.2,0,0.3,0,0.5,0.1c0.1,0.1,0.2,0.3,0.2,0.4c0,0.1,0,0.2-0.1,0.4c-0.3,0.5-0.5,1.4-0.7,2.7c-0.2,1.2-0.3,2.1-0.2,2.8
		c0,0.2,0,0.3-0.1,0.5c-0.1,0.2-0.2,0.3-0.4,0.3c-0.2,0-0.4-0.1-0.6-0.3c-0.7-0.7-1.2-1.7-1.6-3.1c-0.5,0.9-0.8,1.7-1.1,2.1
		c-0.4,0.8-0.8,1.3-1.1,1.3c-0.2,0-0.4-0.2-0.5-0.5c-0.4-1-0.8-2.8-1.2-5.6C47.9,57.5,47.9,57.3,48,57.2z"/>
	
		<linearGradient id="SVGID_33_" gradientUnits="userSpaceOnUse" x1="-162.9737" y1="5549.146" x2="-141.59" y2="5549.146" gradientTransform="matrix(1 0 0 1 202.5 -5489.29)">
		<stop  offset="0" style="stop-color:#A4A0BD"/>
		<stop  offset="1" style="stop-color:#202026"/>
	</linearGradient>
	<path fill="url(#SVGID_33_)" d="M47.7,56.8c0.1-0.1,0.3-0.2,0.5-0.2c0.4,0,0.6,0.2,0.6,0.5c0.2,1.5,0.5,2.8,0.7,3.9l1.6-3.1
		c0.1-0.3,0.3-0.4,0.6-0.4c0.3,0,0.5,0.2,0.6,0.6c0.2,1,0.4,1.8,0.7,2.5c0.2-1.9,0.5-3.2,1-4.1c0.1-0.2,0.3-0.3,0.5-0.3
		c0.2,0,0.3,0,0.5,0.1c0.1,0.1,0.2,0.3,0.2,0.4c0,0.1,0,0.2-0.1,0.4c-0.3,0.5-0.5,1.4-0.7,2.7c-0.2,1.2-0.3,2.1-0.2,2.8
		c0,0.2,0,0.3-0.1,0.5c-0.1,0.2-0.2,0.3-0.4,0.3c-0.2,0-0.4-0.1-0.6-0.3c-0.7-0.7-1.2-1.7-1.6-3.1c-0.5,0.9-0.8,1.7-1.1,2.1
		c-0.4,0.8-0.8,1.3-1.1,1.3c-0.2,0-0.4-0.2-0.5-0.5c-0.4-1-0.8-2.8-1.2-5.6C47.5,57.1,47.6,57,47.7,56.8z"/>
	
		<linearGradient id="SVGID_34_" gradientUnits="userSpaceOnUse" x1="-135.4328" y1="5547.667" x2="-142.4185" y2="5549.6479" gradientTransform="matrix(1 0 0 1 202.5 -5489.29)">
		<stop  offset="0" style="stop-color:#A4A0BD"/>
		<stop  offset="1" style="stop-color:#202026"/>
	</linearGradient>
	<path fill="url(#SVGID_34_)" d="M61.5,53.7c-0.3-0.2-0.6-0.2-0.9-0.2c-1.5,0.2-2.4,3.3-2,6.9c0.4,3.4,1.8,6,3.3,6.2
		c0.4-1.8,0.7-3.7,0.7-5.8C62.6,58.3,62.2,55.8,61.5,53.7z"/>
	
		<linearGradient id="SVGID_35_" gradientUnits="userSpaceOnUse" x1="-168.357" y1="5556.5981" x2="-145.5811" y2="5556.3291" gradientTransform="matrix(1 0 0 1 202.5 -5489.29)">
		<stop  offset="0" style="stop-color:#FFFFFF;stop-opacity:0.4"/>
		<stop  offset="1" style="stop-color:#FFFFFF;stop-opacity:0"/>
	</linearGradient>
	<path fill="url(#SVGID_35_)" d="M51.2,67.9c5.1,0,10-0.6,10.9-1.4c0-0.1,0-0.2,0.1-0.2c-0.7,0.7-5,1.3-10.3,1.3
		c-5.1,0-9.4-0.6-10.2-1.3c0,0.1,0.1,0.1,0.2,0.2C42.8,67.3,46.2,67.9,51.2,67.9z"/>
	
		<linearGradient id="SVGID_36_" gradientUnits="userSpaceOnUse" x1="-140.9309" y1="5542.4727" x2="-146.6613" y2="5542.2949" gradientTransform="matrix(1 0 0 1 202.5 -5489.29)">
		<stop  offset="0" style="stop-color:#010101;stop-opacity:0"/>
		<stop  offset="1" style="stop-color:#010101;stop-opacity:0.4"/>
	</linearGradient>
	<path fill="url(#SVGID_36_)" d="M42.3,53.8c1.3,0,3.7,0.6,6.2,1c7,1.2,7.6,5.1,11.1,4.7c2.3-0.2,0.5-2.9,2.3-4.2
		c-0.9-3.7-2.6-6.7-4.7-8.6c-4.6,0.5-10.8,2.9-14.5,6.2C42.5,53.3,42.5,53.3,42.3,53.8z"/>
	
		<linearGradient id="SVGID_37_" gradientUnits="userSpaceOnUse" x1="-166.3541" y1="5557.541" x2="-149.028" y2="5557.3364" gradientTransform="matrix(1 0 0 1 202.5 -5489.29)">
		<stop  offset="0" style="stop-color:#010101;stop-opacity:0"/>
		<stop  offset="1" style="stop-color:#010101;stop-opacity:0.4"/>
	</linearGradient>
	<path fill="url(#SVGID_37_)" d="M41.9,67c0,0,4.9,2.5,15.6,1.6C57.5,68.7,46.7,70.7,41.9,67z"/>
	
		<linearGradient id="SVGID_38_" gradientUnits="userSpaceOnUse" x1="-156.5669" y1="5557.0332" x2="-143.4172" y2="5556.8779" gradientTransform="matrix(1 0 0 1 202.5 -5489.29)">
		<stop  offset="0" style="stop-color:#010101;stop-opacity:0"/>
		<stop  offset="1" style="stop-color:#010101;stop-opacity:0.4"/>
	</linearGradient>
	<path fill="url(#SVGID_38_)" d="M61.7,67.1c0.2-0.1,0.4-0.4,0.4-0.5c-6.3,2-11.8,1.5-11.8,1.5C54.6,69.2,58.7,68.2,61.7,67.1z"/>
	
		<linearGradient id="SVGID_39_" gradientUnits="userSpaceOnUse" x1="3.0864" y1="5513.6675" x2="20.1201" y2="5513.4663" gradientTransform="matrix(0.9985 5.390000e-02 -5.390000e-02 0.9985 330.406 -5437.5381)">
		<stop  offset="0" style="stop-color:#FFFFFF;stop-opacity:0.4"/>
		<stop  offset="1" style="stop-color:#FFFFFF;stop-opacity:0"/>
	</linearGradient>
	<path fill="url(#SVGID_39_)" d="M42,67.3c0,0,4.3,3,15.3,1.5C57.3,68.7,47.4,71.4,42,67.3z"/>
	
		<linearGradient id="SVGID_40_" gradientUnits="userSpaceOnUse" x1="294.0255" y1="5411.0972" x2="307.0958" y2="5410.9429" gradientTransform="matrix(0.989 0.1482 -0.1482 0.989 548.588 -5328.5947)">
		<stop  offset="0" style="stop-color:#FFFFFF;stop-opacity:0.4"/>
		<stop  offset="1" style="stop-color:#FFFFFF;stop-opacity:0"/>
	</linearGradient>
	<path fill="url(#SVGID_40_)" d="M41.8,66.7c0,0,2.8,2.1,11.6,2C53.4,68.7,44.9,68.3,41.8,66.7z"/>
	<g>
		
			<linearGradient id="SVGID_41_" gradientUnits="userSpaceOnUse" x1="-132.181" y1="5553.9512" x2="-146.6477" y2="5558.2969" gradientTransform="matrix(1 0 0 1 202.5 -5489.29)">
			<stop  offset="0" style="stop-color:#FFFFFF;stop-opacity:0.4"/>
			<stop  offset="1" style="stop-color:#FFFFFF;stop-opacity:0"/>
		</linearGradient>
		<path fill="url(#SVGID_41_)" d="M52.3,69.4c3.7,0.2,6.6-0.6,9.1-1.7c0.2-0.1,0.4-0.3,0.5-0.5C57,69.4,53.6,69.5,52.3,69.4z"/>
		
			<linearGradient id="SVGID_42_" gradientUnits="userSpaceOnUse" x1="-132.3798" y1="5553.3018" x2="-146.8437" y2="5557.647" gradientTransform="matrix(1 0 0 1 202.5 -5489.29)">
			<stop  offset="0" style="stop-color:#FFFFFF;stop-opacity:0.4"/>
			<stop  offset="1" style="stop-color:#FFFFFF;stop-opacity:0"/>
		</linearGradient>
		<path fill="url(#SVGID_42_)" d="M52.3,69.4c-0.2,0-0.3,0-0.5,0C51.8,69.4,52,69.4,52.3,69.4z"/>
	</g>
	
		<linearGradient id="SVGID_43_" gradientUnits="userSpaceOnUse" x1="-161.4657" y1="5557.6274" x2="-158.8461" y2="5557.5967" gradientTransform="matrix(1 0 0 1 202.5 -5489.29)">
		<stop  offset="0" style="stop-color:#010101;stop-opacity:0"/>
		<stop  offset="1" style="stop-color:#010101;stop-opacity:0.4"/>
	</linearGradient>
	<path fill="url(#SVGID_43_)" d="M44.2,69.1c-1.2-0.5-2-1-2.3-1.5c0,0.3,0.1,0.6,0.4,0.8c0,0,0,0,0,0C42.6,68.7,43.3,68.9,44.2,69.1
		C44.3,69.1,44.2,69.1,44.2,69.1z"/>
	
		<linearGradient id="SVGID_44_" gradientUnits="userSpaceOnUse" x1="-163.9403" y1="5548.1689" x2="-159.8356" y2="5548.9912" gradientTransform="matrix(1 0 0 1 202.5 -5489.29)">
		<stop  offset="0" style="stop-color:#FFFFFF;stop-opacity:0.4"/>
		<stop  offset="1" style="stop-color:#FFFFFF;stop-opacity:0"/>
	</linearGradient>
	<path fill="url(#SVGID_44_)" d="M41.7,65.3c1,0,2.9-2.2,3.1-5.3c0.2-3.2-1.3-6.1-2.4-6.2c0,0-0.1,0-0.1,0c-0.7,2.1-1,4.5-1,7
		C41.3,62.4,41.4,63.9,41.7,65.3z"/>
	
		<linearGradient id="SVGID_45_" gradientUnits="userSpaceOnUse" x1="-162.2489" y1="5559.9844" x2="-158.1411" y2="5560.8071" gradientTransform="matrix(1 0 0 1 202.5 -5489.29)">
		<stop  offset="0" style="stop-color:#FFFFFF;stop-opacity:0.4"/>
		<stop  offset="1" style="stop-color:#FFFFFF;stop-opacity:0"/>
	</linearGradient>
	<path fill="url(#SVGID_45_)" d="M42.8,69.2c0.7,1.8,1.6,3.4,2.7,4.6c0.6-0.6,0.5-1.9-0.1-3C44.7,69.6,43.6,69.3,42.8,69.2z"/>
	
		<linearGradient id="SVGID_46_" gradientUnits="userSpaceOnUse" x1="-162.1056" y1="5560.4331" x2="-161.5058" y2="5563.7754" gradientTransform="matrix(1 0 0 1 202.5 -5489.29)">
		<stop  offset="0" style="stop-color:#A4A0BD"/>
		<stop  offset="1" style="stop-color:#202026"/>
	</linearGradient>
	<path fill="url(#SVGID_46_)" d="M44.2,79.2c0.5-1.9-0.1-4.3-1.8-6.3c-0.5-0.6-1.1-1.2-1.7-1.6c0,0,0,0,0,0
		c-2.1,0.8-3.9,0.9-2.1,3.8C39.8,76.9,42.5,79.1,44.2,79.2z"/>
	
		<linearGradient id="SVGID_47_" gradientUnits="userSpaceOnUse" x1="-141.5421" y1="5560.5361" x2="-139.7424" y2="5564.564" gradientTransform="matrix(1 0 0 1 202.5 -5489.29)">
		<stop  offset="0" style="stop-color:#A4A0BD"/>
		<stop  offset="1" style="stop-color:#202026"/>
	</linearGradient>
	<path fill="url(#SVGID_47_)" d="M61.3,73.1c-1.5,1.8-2.1,4-1.8,5.7c1.9-0.3,5-2.5,6.1-4.2c1.3-2,1.2-3.1-2.3-3.4
		C62.6,71.8,61.9,72.4,61.3,73.1z"/>
	
		<linearGradient id="SVGID_48_" gradientUnits="userSpaceOnUse" x1="523.1886" y1="5241.5898" x2="524.5042" y2="5245.417" gradientTransform="matrix(0.98 0.2567 -0.206 0.9665 634.784 -5177.2651)">
		<stop  offset="0" style="stop-color:#A4A0BD"/>
		<stop  offset="1" style="stop-color:#202026"/>
	</linearGradient>
	<path fill="url(#SVGID_48_)" d="M75.1,33.4C75,34.1,72,34,68.5,33.1c-3.5-0.9-6.2-2.2-6-3c0.2-0.7,3.1-0.6,6.6,0.3
		C72.6,31.3,75.3,32.7,75.1,33.4z"/>
	
		<linearGradient id="SVGID_49_" gradientUnits="userSpaceOnUse" x1="527.8461" y1="5257.0376" x2="492.95" y2="5262.0229" gradientTransform="matrix(0.98 0.2567 -0.206 0.9665 634.784 -5177.2651)">
		<stop  offset="0" style="stop-color:#D9B78B"/>
		<stop  offset="4.910000e-02" style="stop-color:#DFC094"/>
		<stop  offset="0.1566" style="stop-color:#EAD0A4"/>
		<stop  offset="0.2905" style="stop-color:#F1DBB0"/>
		<stop  offset="0.4784" style="stop-color:#F6E1B7"/>
		<stop  offset="1" style="stop-color:#F7E3B9"/>
	</linearGradient>
	<path fill="url(#SVGID_49_)" d="M71.9,32.3c2.3,8.9-6.7,18.8-18,21.1C42.5,55.7,33.7,50,31.4,41.1c-2.3-8.9,5.1-18,16.4-20.3
		C59.1,18.5,69.6,23.4,71.9,32.3z"/>
	
		<linearGradient id="SVGID_50_" gradientUnits="userSpaceOnUse" x1="498.4516" y1="5266.4883" x2="501.0254" y2="5261.1382" gradientTransform="matrix(0.98 0.2567 -0.206 0.9665 634.784 -5177.2651)">
		<stop  offset="0" style="stop-color:#D9B78B"/>
		<stop  offset="0.6073" style="stop-color:#ECD4A9"/>
		<stop  offset="1" style="stop-color:#F7E3B9"/>
	</linearGradient>
	<path fill="url(#SVGID_50_)" d="M46.2,45.1c-1.8,1.9-6.1,0.8-9.7-2.6c-3.6-3.3-5-7.6-3.3-9.5s6.1-0.8,9.7,2.6
		C46.5,39,47.9,43.2,46.2,45.1z"/>
	
		<linearGradient id="SVGID_51_" gradientUnits="userSpaceOnUse" x1="509.1988" y1="5256.1875" x2="510.8509" y2="5260.0776" gradientTransform="matrix(0.98 0.2567 -0.206 0.9665 634.784 -5177.2651)">
		<stop  offset="0" style="stop-color:#D9B78B"/>
		<stop  offset="1" style="stop-color:#D9B78B;stop-opacity:0"/>
	</linearGradient>
	<path fill="url(#SVGID_51_)" d="M56.7,40.7c-7.8,0.4-11.2,1.7-14.7,2.7c-3.5,1-4.3-0.6-4.3-1.1s-1.2-2.4-0.9-6
		c0.3-3.6,7.6-6.2,19.2-6.1c6.6,0,12.2,1.3,15.9,2.4c0-0.1,0-0.2-0.1-0.3c-2.3-8.9-12.8-13.8-24.1-11.5
		c-11.3,2.3-18.6,11.4-16.4,20.3s11.1,14.6,22.5,12.3c7.1-1.4,13.3-5.9,16.3-11.2C66.3,41.3,61.1,40.5,56.7,40.7z"/>
	<path opacity="0.1" fill="#010101" enable-background="new    " d="M71.9,32.3C70.5,26.8,66,22.8,60,21.1c-0.1,0-0.2-0.1-0.3-0.1
		c5.8,1.7,10.2,5.6,11.6,11.1c2.3,8.9-6.7,18.8-18,21.1c-3.4,0.7-6.6,0.7-9.5,0c0.1,0,0.2,0.1,0.3,0.1c2.9,0.7,6.2,0.7,9.7,0
		C65.2,51.1,74.1,41.2,71.9,32.3z"/>
	<g>
		
			<linearGradient id="SVGID_52_" gradientUnits="userSpaceOnUse" x1="-159.4738" y1="5521.7061" x2="-159.1319" y2="5526.4663" gradientTransform="matrix(1 0 0 1 202.5 -5489.29)">
			<stop  offset="0" style="stop-color:#D9B78B"/>
			<stop  offset="1" style="stop-color:#D9B78B;stop-opacity:0"/>
		</linearGradient>
		<path fill="url(#SVGID_52_)" d="M39.3,37.5c0.8-0.6,1.9-1.2,3.1-1.5c1.8-0.5,3.5-0.5,5,0c-0.5-2-2.2-3.6-4.2-3.7
			c-2.3-0.1-4.1,2-4,4.6C39.2,37.1,39.3,37.3,39.3,37.5z"/>
	</g>
	<g>
		
			<linearGradient id="SVGID_53_" gradientUnits="userSpaceOnUse" x1="1375.2607" y1="5158.0181" x2="1375.6025" y2="5162.7783" gradientTransform="matrix(0.8952 0.4457 -0.4457 0.8952 1135.1058 -5197.6865)">
			<stop  offset="0" style="stop-color:#D9B78B"/>
			<stop  offset="1" style="stop-color:#D9B78B;stop-opacity:0"/>
		</linearGradient>
		<path fill="url(#SVGID_53_)" d="M61.7,35.6c1-0.2,2.2-0.2,3.4,0.1c1.8,0.4,3.4,1.2,4.5,2.2c0.4-2.1-0.4-4.2-2.1-5.1
			c-2-1.1-4.6,0-5.7,2.3C61.8,35.3,61.8,35.4,61.7,35.6z"/>
	</g>
	<path fill="#010101" d="M39.9,37.7c0,0,1.4-2.7,3.6-3c2.2-0.2,3.2,1.7,3.2,1.7L46,37c0,0-1.2-1.5-2.4-1.3c-1.2,0.2-3,2.5-3,2.6
		L39.9,37.7z"/>
	<path fill="#010101" d="M62.4,36c0,0,2-2.2,4-1.6c2,0.5,2.4,2.7,2.4,2.7L68,37.5c0,0-0.7-2-1.8-2.2c-1.1-0.2-3.3,1.5-3.3,1.6
		L62.4,36z"/>
	
		<linearGradient id="SVGID_54_" gradientUnits="userSpaceOnUse" x1="503.0656" y1="5245.3682" x2="512.3641" y2="5261.4727" gradientTransform="matrix(0.98 0.2567 -0.206 0.9665 634.784 -5177.2651)">
		<stop  offset="0" style="stop-color:#A4A0BD"/>
		<stop  offset="1" style="stop-color:#202026"/>
	</linearGradient>
	<path fill="url(#SVGID_54_)" d="M55.9,40.2c-7.8,0.4-11.2,1.7-14.7,2.7c-2.8,0.8-4.1-0.7-4.3-1.1c-0.2-0.4-1.2-2.4-0.9-6
		c0.3-3.6,7.6-6.2,19.2-6.1c9.9,0.1,17.5,2.8,19.8,3.7C73.2,24,62.4,17.9,49.9,19C36.9,20.1,27.6,29,29,38.9
		c1.4,9.9,13.7,17.2,26.6,16.1c9-0.8,14.4-6.1,18.1-12.3C70.7,41.8,62.4,39.9,55.9,40.2z"/>
	
		<linearGradient id="SVGID_55_" gradientUnits="userSpaceOnUse" x1="482.4084" y1="5261.9067" x2="486.088" y2="5263.3018" gradientTransform="matrix(0.98 0.2567 -0.206 0.9665 634.784 -5177.2651)">
		<stop  offset="0" style="stop-color:#A4A0BD"/>
		<stop  offset="1" style="stop-color:#202026"/>
	</linearGradient>
	<path fill="url(#SVGID_55_)" d="M35,35.3c0,0-8.8-6.6-10.3-3.8c-1.5,2.8-1.9,3.7-1.9,3.7s-0.4,1.4,1.9,2.6s7.5,2.2,7.5,2.2L35,35.3
		z"/>
	
		<linearGradient id="SVGID_56_" gradientUnits="userSpaceOnUse" x1="484.1048" y1="5260.4995" x2="490.8958" y2="5261.9829" gradientTransform="matrix(0.98 0.2567 -0.206 0.9665 634.784 -5177.2651)">
		<stop  offset="0" style="stop-color:#A4A0BD"/>
		<stop  offset="1" style="stop-color:#202026"/>
	</linearGradient>
	<path fill="url(#SVGID_56_)" d="M24.9,31.2c-0.2,0.7,1.4,2,3.6,2.9c2.2,0.9,4.2,1.1,4.5,0.5c0.1-0.3-0.2-0.7-0.8-1.2
		C29.6,31.8,26.1,30,24.9,31.2z"/>
	
		<linearGradient id="SVGID_57_" gradientUnits="userSpaceOnUse" x1="484.1227" y1="5260.0801" x2="487.1098" y2="5261.3721" gradientTransform="matrix(0.98 0.2567 -0.206 0.9665 634.784 -5177.2651)">
		<stop  offset="0" style="stop-color:#FFFFFF;stop-opacity:0.4"/>
		<stop  offset="1" style="stop-color:#FFFFFF;stop-opacity:0"/>
	</linearGradient>
	<path fill="url(#SVGID_57_)" d="M28.7,34c-2.2-0.9-3.8-2.2-3.6-2.9c0.1-0.1,0.1-0.1,0.2-0.1c-0.1,0.1-0.3,0.2-0.4,0.3
		c-0.2,0.7,1.4,2,3.6,2.9c2,0.8,3.8,1.1,4.4,0.6C32.1,35,30.5,34.7,28.7,34z"/>
	
		<linearGradient id="SVGID_58_" gradientUnits="userSpaceOnUse" x1="1745.0974" y1="2487.3743" x2="1743.2302" y2="2488.8792" gradientTransform="matrix(0.5489 1.0093 -1.0974 0.2647 1804.3297 -2384.8552)">
		<stop  offset="0" style="stop-color:#A4A0BD"/>
		<stop  offset="1" style="stop-color:#202026"/>
	</linearGradient>
	<path fill="url(#SVGID_58_)" d="M32,34.1c0.1-0.4-1.2-1.1-2.9-2c-2-1-3.3-1-3.4-0.7c-0.1,0.4,1.2,1.3,2.9,2
		C30.3,34.1,31.8,34.4,32,34.1z"/>
	
		<linearGradient id="SVGID_59_" gradientUnits="userSpaceOnUse" x1="939.3878" y1="4999.5137" x2="941.6984" y2="4999.1616" gradientTransform="matrix(0.9354 0.4053 -0.3574 0.9142 933.017 -4911.4893)">
		<stop  offset="0" style="stop-color:#A4A0BD"/>
		<stop  offset="1" style="stop-color:#202026"/>
	</linearGradient>
	<path fill="url(#SVGID_59_)" d="M33.8,36.6c0,0-10.6,1.2-9.6,4.4c1,3.1,1.3,4.1,1.3,4.1s0.7,1.3,3.1,0.6c2.5-0.7,6.6-3.6,6.6-3.6
		L33.8,36.6z"/>
	
		<linearGradient id="SVGID_60_" gradientUnits="userSpaceOnUse" x1="937.9177" y1="5000.606" x2="945.0209" y2="4995.6187" gradientTransform="matrix(0.9354 0.4053 -0.3574 0.9142 933.017 -4911.4893)">
		<stop  offset="0" style="stop-color:#A4A0BD"/>
		<stop  offset="1" style="stop-color:#202026"/>
	</linearGradient>
	<path fill="url(#SVGID_60_)" d="M25.4,38.9c-0.4,0.3-0.7,0.5-1,0.8c-0.3,0.4-0.4,0.8-0.3,1.3c0,0,0,0,0,0c0.6,0.4,2.5,0.2,4.4-0.7
		c2.2-1,3.7-2.3,3.4-3c-0.1-0.2-0.3-0.3-0.5-0.3C29.6,37.3,27,38,25.4,38.9z"/>
	
		<linearGradient id="SVGID_61_" gradientUnits="userSpaceOnUse" x1="938.1663" y1="5000.9434" x2="945.1895" y2="4996.0122" gradientTransform="matrix(0.9354 0.4053 -0.3574 0.9142 933.017 -4911.4893)">
		<stop  offset="0" style="stop-color:#FFFFFF;stop-opacity:0.4"/>
		<stop  offset="1" style="stop-color:#FFFFFF;stop-opacity:0"/>
	</linearGradient>
	<path fill="url(#SVGID_61_)" d="M28.7,40.2c-1.9,0.9-3.9,1.2-4.3,0.7c-0.2-0.2-0.2-0.6-0.1-0.9c-0.1,0.3-0.2,0.6-0.1,1c0,0,0,0,0,0
		c0.6,0.4,2.5,0.2,4.4-0.7c1.8-0.8,3.2-1.9,3.4-2.6C31.7,38.5,30.4,39.4,28.7,40.2z"/>
	
		<linearGradient id="SVGID_62_" gradientUnits="userSpaceOnUse" x1="942.2742" y1="4996.1562" x2="941.4709" y2="4997.7627" gradientTransform="matrix(0.9354 0.4053 -0.3574 0.9142 933.017 -4911.4893)">
		<stop  offset="0" style="stop-color:#FFFFFF;stop-opacity:0.4"/>
		<stop  offset="1" style="stop-color:#FFFFFF;stop-opacity:0"/>
	</linearGradient>
	<path fill="url(#SVGID_62_)" d="M29.6,38.2c-0.2-0.4-1.4-0.2-2.8,0.3c-1.3,0.6-2.3,1.4-2.1,1.8s1.4,0.3,2.8-0.3
		C28.9,39.4,29.8,38.6,29.6,38.2z"/>
	
		<linearGradient id="SVGID_63_" gradientUnits="userSpaceOnUse" x1="717.3876" y1="4783.3613" x2="714.8682" y2="4785.4438" gradientTransform="matrix(0.964 0.4648 -0.3308 0.9697 923.0889 -4933.8149)">
		<stop  offset="0" style="stop-color:#A4A0BD"/>
		<stop  offset="1" style="stop-color:#202026"/>
	</linearGradient>
	<path fill="url(#SVGID_63_)" d="M29.5,38.4c-0.2-0.4-1.4-0.2-2.8,0.3c-1.3,0.6-2.3,1.4-2.1,1.8c0.2,0.4,1.4,0.3,2.8-0.3
		C28.8,39.6,29.7,38.8,29.5,38.4z"/>
	
		<linearGradient id="SVGID_64_" gradientUnits="userSpaceOnUse" x1="503.0671" y1="5245.3652" x2="512.3585" y2="5261.4575" gradientTransform="matrix(0.98 0.2567 -0.206 0.9665 634.784 -5177.2651)">
		<stop  offset="0" style="stop-color:#A4A0BD"/>
		<stop  offset="1" style="stop-color:#202026"/>
	</linearGradient>
	<path fill="url(#SVGID_64_)" d="M55.9,40.2c-7.8,0.4-11.2,1.7-14.7,2.7c-2.8,0.8-4.1-0.7-4.3-1.1c-0.2-0.4-1.2-2.4-0.9-6
		c0.3-3.6,7.6-6.2,19.2-6.1c9.9,0.1,17.5,2.8,19.8,3.7C73.2,24,62.4,17.9,49.9,19C36.9,20.1,27.6,29,29,38.9
		c1.4,9.9,13.9,17.1,26.9,16c9-0.8,14.8-5.8,17.8-12.2C70.7,41.8,62.4,39.9,55.9,40.2z"/>
	<g>
		
			<linearGradient id="SVGID_65_" gradientUnits="userSpaceOnUse" x1="511.6767" y1="5249.0664" x2="512.5259" y2="5251.9448" gradientTransform="matrix(0.98 0.2567 -0.206 0.9665 634.784 -5177.2651)">
			<stop  offset="0" style="stop-color:#010101;stop-opacity:0"/>
			<stop  offset="1" style="stop-color:#010101;stop-opacity:0.4"/>
		</linearGradient>
		<path fill="url(#SVGID_65_)" d="M55.3,28.9c-11.6-0.1-18.9,2.5-19.2,6.1c-0.1,0.8-0.1,1.6,0,2.2c0-0.5,0-1,0.1-1.5
			c0.3-3.6,7.6-6.2,19.2-6.1c9.9,0.1,17.5,2.8,19.8,3.7c-0.1-0.3-0.1-0.5-0.2-0.8C72.4,31.6,65,28.9,55.3,28.9z"/>
	</g>
	<g opacity="0.16">
		<path fill="#FFFFFF" d="M30.2,40c-1.4-9.9,8-18.8,20.9-19.9c7.5-0.6,14.4,1.3,19.1,4.9c-4.7-4.3-12.2-6.7-20.3-6
			C36.9,20.1,27.6,29,29,38.9c0.7,4.7,4.2,9.1,7.9,11.5C33.8,47.6,30.8,44.1,30.2,40z"/>
		<path fill="#FFFFFF" d="M55.9,40.2c-7.8,0.4-11.2,1.7-14.7,2.7c-1.3,0.4-2.3,0.2-3-0.1c0,0,0,0,0,0c0.2,0.4,1.5,1.9,4.3,1.1
			c3.5-1,6.9-2.3,14.7-2.7c5.5-0.3,12.4,1.1,16.1,2.1c0.1-0.2,0.2-0.4,0.4-0.6C70.7,41.8,62.4,39.9,55.9,40.2z"/>
	</g>
	<path opacity="0.15" fill="#FFFFFF" enable-background="new    " d="M37.8,27.7c12.6-8.7,27-3.6,34.4-1c-0.6-0.7-1.2-1.4-1.8-2
		C45.2,18.6,37.8,27.7,37.8,27.7z"/>
	
		<linearGradient id="SVGID_66_" gradientUnits="userSpaceOnUse" x1="481.5382" y1="5254.4531" x2="544.4124" y2="5239.9263" gradientTransform="matrix(0.98 0.2567 -0.206 0.9665 634.784 -5177.2651)">
		<stop  offset="0" style="stop-color:#A4A0BD"/>
		<stop  offset="1" style="stop-color:#202026"/>
	</linearGradient>
	<path fill="url(#SVGID_66_)" d="M37.8,28.1c12.6-8.7,27-3.6,34.4-1c-0.6-0.7-1.2-1.4-1.8-2C45.1,18.9,37.8,28.1,37.8,28.1z"/>
	
		<linearGradient id="SVGID_67_" gradientUnits="userSpaceOnUse" x1="481.8088" y1="5254.3906" x2="543.3808" y2="5240.1646" gradientTransform="matrix(0.98 0.2567 -0.206 0.9665 634.784 -5177.2651)">
		<stop  offset="0" style="stop-color:#010101;stop-opacity:0"/>
		<stop  offset="1" style="stop-color:#010101;stop-opacity:0.4"/>
	</linearGradient>
	<path fill="url(#SVGID_67_)" d="M59,23.6c3.4,0.3,7.3,0.9,11.7,1.9c0.2,0.2,0.5,0.4,0.7,0.7c-0.4-0.4-0.7-0.8-1.1-1.1
		c-25.1-6.1-32.5,3-32.5,3C44.8,23.2,52.4,22.7,59,23.6z"/>
	
		<linearGradient id="SVGID_68_" gradientUnits="userSpaceOnUse" x1="480.9088" y1="5257.8711" x2="531.5615" y2="5245.9424" gradientTransform="matrix(0.98 0.2567 -0.206 0.9665 634.784 -5177.2651)">
		<stop  offset="0" style="stop-color:#A4A0BD"/>
		<stop  offset="1" style="stop-color:#202026"/>
	</linearGradient>
	<path fill="url(#SVGID_68_)" d="M41.2,29.5c13.9-4.1,25.6-1.6,33.3,1.9c-0.2-0.6-0.4-1.1-0.7-1.6C53.6,23.3,41.2,29.5,41.2,29.5z"
		/>
	<path opacity="0.15" fill="#FFFFFF" enable-background="new    " d="M36.6,41.6C36.6,41.6,36.6,41.6,36.6,41.6
		C36.6,41.6,36.6,41.5,36.6,41.6c-0.1-0.1-0.1-0.2-0.1-0.2c0,0,0,0,0,0c0,0,0-0.1-0.1-0.1c0,0,0,0,0,0c-0.3-0.7-0.8-2.2-0.8-4.5
		c0,0,0,0,0,0c0-3.7,0.8-7.3,2-10.2c0.9-2.1,3.7-5.2,6.6-6.8c-1.6,0.4-3.1,1-4.5,1.7c-2.1,1.9-3.5,4.4-3.8,5.3
		C32.8,36.5,36.6,41.6,36.6,41.6z"/>
	
		<linearGradient id="SVGID_69_" gradientUnits="userSpaceOnUse" x1="496.4997" y1="5243.7192" x2="496.9488" y2="5261.2363" gradientTransform="matrix(0.98 0.2567 -0.206 0.9665 634.784 -5177.2651)">
		<stop  offset="0" style="stop-color:#A4A0BD"/>
		<stop  offset="1" style="stop-color:#202026"/>
	</linearGradient>
	<path fill="url(#SVGID_69_)" d="M37,41.7C37,41.7,36.9,41.7,37,41.7C36.9,41.6,36.9,41.6,37,41.7c-0.1-0.1-0.1-0.2-0.1-0.2
		c0,0,0,0,0,0c0,0,0-0.1-0.1-0.1c0,0-0.2,0-0.2,0c-0.3-0.7-1-2.2-1-4.5c0,0,0,0,0,0c0-3.7,1-7.3,2.1-10.2c0.9-2.1,3.8-5.2,6.6-6.8
		c-1.6,0.4-3.1,1-4.5,1.7c-2.1,1.9-3.5,4.4-3.8,5.3C33.2,36.6,37,41.7,37,41.7z"/>
	
		<linearGradient id="SVGID_70_" gradientUnits="userSpaceOnUse" x1="1954.5601" y1="3161.9785" x2="1982.7473" y2="3165.0317" gradientTransform="matrix(0.6104 0.8235 -0.7938 0.5673 1345.3868 -3378.7607)">
		<stop  offset="0" style="stop-color:#A4A0BD"/>
		<stop  offset="1" style="stop-color:#202026"/>
	</linearGradient>
	<path opacity="0.7" fill="url(#SVGID_70_)" enable-background="new    " d="M33.5,39.5c0,0,4.1,8.8,13.9,9.8
		C47.4,49.2,36.6,50,33.5,39.5z"/>
	
		<linearGradient id="SVGID_71_" gradientUnits="userSpaceOnUse" x1="1956.2561" y1="3163.2827" x2="1984.4435" y2="3166.3362" gradientTransform="matrix(0.6104 0.8235 -0.7938 0.5673 1345.3868 -3378.7607)">
		<stop  offset="0" style="stop-color:#010101;stop-opacity:0"/>
		<stop  offset="1" style="stop-color:#010101;stop-opacity:0.4"/>
	</linearGradient>
	<path opacity="0.7" fill="url(#SVGID_71_)" enable-background="new    " d="M33.5,41.6c0,0,4.1,8.8,13.9,9.8
		C47.4,51.4,36.6,52.1,33.5,41.6z"/>
	
		<linearGradient id="SVGID_72_" gradientUnits="userSpaceOnUse" x1="492.706" y1="5250.4917" x2="491.9367" y2="5273.0957" gradientTransform="matrix(0.98 0.2567 -0.206 0.9665 634.784 -5177.2651)">
		<stop  offset="0" style="stop-color:#FFFFFF;stop-opacity:0.4"/>
		<stop  offset="1" style="stop-color:#FFFFFF;stop-opacity:0"/>
	</linearGradient>
	<path opacity="0.7" fill="url(#SVGID_72_)" enable-background="new    " d="M35,27.7c0,0-5.8,7.3-1.8,16.4
		C33.2,44.1,27.2,34.8,35,27.7z"/>
	<g>
		
			<linearGradient id="SVGID_73_" gradientUnits="userSpaceOnUse" x1="518.7635" y1="5242.1152" x2="527.1981" y2="5245.6299" gradientTransform="matrix(0.98 0.2567 -0.206 0.9665 634.784 -5177.2651)">
			<stop  offset="0" style="stop-color:#010101;stop-opacity:0"/>
			<stop  offset="1" style="stop-color:#010101;stop-opacity:0.4"/>
		</linearGradient>
		<path fill="url(#SVGID_73_)" d="M73.9,32.9c0.5,0.2,0.9,0.3,1.2,0.4c-1.6-8-9.8-13.6-19.9-14.4C64.6,20,72.2,25.4,73.9,32.9z"/>
		
			<linearGradient id="SVGID_74_" gradientUnits="userSpaceOnUse" x1="510.8681" y1="5261.0654" x2="519.3027" y2="5264.5801" gradientTransform="matrix(0.98 0.2567 -0.206 0.9665 634.784 -5177.2651)">
			<stop  offset="0" style="stop-color:#010101;stop-opacity:0"/>
			<stop  offset="1" style="stop-color:#010101;stop-opacity:0.4"/>
		</linearGradient>
		<path fill="url(#SVGID_74_)" d="M54.2,29.5c-11.6-0.1-18.9,2.5-19.2,6.1c-0.3,3.6,0.7,5.5,0.9,6C36.1,42,37,43,38.8,43
			c-1.1-0.3-1.7-1-1.9-1.3c-0.2-0.4-1.2-2.4-0.9-6c0.3-3.6,7.6-6.2,19.2-6.1c1.5,0,3,0.1,4.4,0.2C57.9,29.6,56.1,29.5,54.2,29.5z"/>
	</g>
	
		<linearGradient id="SVGID_75_" gradientUnits="userSpaceOnUse" x1="564.1605" y1="5244.0244" x2="592.3454" y2="5247.0771" gradientTransform="matrix(0.9731 0.2866 -0.2364 0.958 724.4993 -5147.5171)">
		<stop  offset="0" style="stop-color:#A4A0BD"/>
		<stop  offset="1" style="stop-color:#202026"/>
	</linearGradient>
	<path opacity="0.78" fill="url(#SVGID_75_)" enable-background="new    " d="M46.9,46.8c0,0,9,3,16.5-0.8
		C63.4,46,56.8,54.3,46.9,46.8z"/>
</g>
</svg>
